<?xml version="1.0" ?><svg viewBox="0 0 48 48" xmlns="http://www.w3.org/2000/svg"><title/><g data-name="46-Area" id="_46-Area"><path d="M46,10a2,2,0,0,0,2-2V2a2,2,0,0,0-2-2H40a2,2,0,0,0-2,2V4H29V2a2,2,0,0,0-2-2H21a2,2,0,0,0-2,2V4H10V2A2,2,0,0,0,8,0H2A2,2,0,0,0,0,2V8a2,2,0,0,0,2,2H4v9H2a2,2,0,0,0-2,2v6a2,2,0,0,0,2,2H4v9H2a2,2,0,0,0-2,2v6a2,2,0,0,0,2,2H8a2,2,0,0,0,2-2V44h9v2a2,2,0,0,0,2,2h6a2,2,0,0,0,2-2V44h9v2a2,2,0,0,0,2,2h6a2,2,0,0,0,2-2V40a2,2,0,0,0-2-2H44V29h2a2,2,0,0,0,2-2V21a2,2,0,0,0-2-2H44V10ZM21,2h6V8H21ZM2,8V2H8V8ZM2,27V21H8v6ZM8,46H2V40H8Zm19,0H21V40h6Zm11-6v2H29V40a2,2,0,0,0-2-2H21a2,2,0,0,0-2,2v2H10V40a2,2,0,0,0-2-2H6V29H8a2,2,0,0,0,2-2V21a2,2,0,0,0-2-2H6V10H8a2,2,0,0,0,2-2V6h9V8a2,2,0,0,0,2,2h6a2,2,0,0,0,2-2V6h9V8a2,2,0,0,0,2,2h2v9H40a2,2,0,0,0-2,2v6a2,2,0,0,0,2,2h2v9H40A2,2,0,0,0,38,40Zm8,0v6H40V40Zm0-19v6H40V21ZM40,8V2h6V8Z"/></g></svg>