<?xml version="1.0" ?><svg enable-background="new 0 0 40 40" id="Слой_1" version="1.1" viewBox="0 0 40 40" xml:space="preserve" xmlns="http://www.w3.org/2000/svg" xmlns:xlink="http://www.w3.org/1999/xlink"><g><path d="M14.9,30.8c-5.2,0-9.5-4.3-9.5-9.5s4.3-9.5,9.5-9.5s9.5,4.3,9.5,9.5c0,0.6-0.4,1-1,1s-1-0.4-1-1c0-4.1-3.4-7.5-7.5-7.5   s-7.5,3.4-7.5,7.5s3.4,7.5,7.5,7.5c0.6,0,1,0.4,1,1S15.4,30.8,14.9,30.8z"/></g><g><path d="M10.4,22.3c-0.6,0-1-0.4-1-1c0-3,2.5-5.5,5.5-5.5c0.6,0,1,0.4,1,1s-0.4,1-1,1c-1.9,0-3.5,1.6-3.5,3.5   C11.4,21.9,10.9,22.3,10.4,22.3z"/></g><g><path d="M33.7,6h-0.8V3.1c0-1.7-1.4-3.1-3.1-3.1c-1.7,0-3.1,1.4-3.1,3.1V6h-2V5.1c0-1.7-1.4-3.1-3.1-3.1H10C8.3,2,6.9,3.4,6.9,5.1   V6H6.1c-3.4,0-6.2,2.8-6.2,6.2v18.3c0,3.4,2.8,6.2,6.2,6.2h27.7c3.4,0,6.2-2.8,6.2-6.2V12.2C39.9,8.8,37.1,6,33.7,6z M28.7,3.1   c0-0.6,0.5-1.1,1.1-1.1c0.6,0,1.1,0.5,1.1,1.1V6h-2.2V3.1z M37.9,30.5c0,2.3-1.9,4.2-4.2,4.2H6.1c-2.3,0-4.2-1.9-4.2-4.2V12.2   C1.9,9.9,3.8,8,6.1,8h10.3c0.5,0,1-0.4,1-1c0-0.5-0.5-1-1-1H8.9V5.1C8.9,4.5,9.4,4,10,4h11.6c0.6,0,1.1,0.5,1.1,1.1V7   c0,0.6,0.5,1,1,1h10c2.3,0,4.2,1.9,4.2,4.2V30.5z"/></g><g><path d="M34.9,18.3h-7.4c-0.6,0-1-0.4-1-1s0.4-1,1-1h7.4c0.6,0,1,0.4,1,1S35.4,18.3,34.9,18.3z"/></g><g><path d="M34.9,22.3h-7.4c-0.6,0-1-0.4-1-1s0.4-1,1-1h7.4c0.6,0,1,0.4,1,1S35.4,22.3,34.9,22.3z"/></g><g><path d="M34.9,26.3h-7.4c-0.6,0-1-0.4-1-1s0.4-1,1-1h7.4c0.6,0,1,0.4,1,1S35.4,26.3,34.9,26.3z"/></g></svg>