<?xml version="1.0" ?><svg height="60px" version="1.1" viewBox="0 0 60 60" width="60px" xmlns="http://www.w3.org/2000/svg" xmlns:sketch="http://www.bohemiancoding.com/sketch/ns" xmlns:xlink="http://www.w3.org/1999/xlink"><title/><desc/><defs/><g fill="none" fill-rule="evenodd" id="Page-1" stroke="none" stroke-width="1"><g fill="#0A0B09" id="Fill-123-+-Fill-124" transform="translate(1.000000, 2.000000)"><path d="M35.76,46.98 L29.123,48.619 L29.996,39.004 C30.036,38.562 29.78,38.147 29.367,37.984 C28.953,37.82 28.483,37.949 28.211,38.3 L22.42,45.74 L18.961,33.63 C18.839,33.201 18.446,32.905 18,32.905 C17.554,32.905 17.161,33.201 17.039,33.63 L13.543,45.862 L7.752,39.244 C7.455,38.904 6.965,38.805 6.558,39.006 C6.151,39.206 5.931,39.655 6.02,40.099 L7.711,48.559 L1.237,46.979 C0.804,46.873 0.349,47.07 0.129,47.459 C-0.091,47.85 -0.025,48.338 0.29,48.656 L8.29,56.705 C8.479,56.894 8.734,57 9,57 L27,57 C27.246,57 27.483,56.909 27.666,56.746 L36.666,48.697 C37.009,48.391 37.099,47.89 36.884,47.484 C36.67,47.079 36.209,46.87 35.76,46.98 L35.76,46.98 Z M26.618,55 L9.416,55 L4.211,49.764 L8.763,50.874 C9.093,50.956 9.446,50.861 9.692,50.624 C9.939,50.388 10.048,50.042 9.98,49.706 L8.716,43.382 L13.248,48.562 C13.488,48.837 13.863,48.958 14.218,48.879 C14.576,48.799 14.861,48.53 14.961,48.178 L18,37.545 L21.039,48.183 C21.142,48.545 21.44,48.818 21.81,48.89 C22.179,48.96 22.558,48.819 22.789,48.522 L27.696,42.218 L27.004,49.836 C26.975,50.158 27.103,50.474 27.349,50.685 C27.594,50.896 27.928,50.975 28.24,50.897 L32.337,49.886 L26.618,55 L26.618,55 Z" id="Fill-123"/><path d="M57.764,27.489 C57.364,26.57 56.465,26 55.417,26 L44.316,26 L54.216,16.101 C54.742,15.574 54.998,14.819 54.899,14.08 L53.3,2.09 C53.19,1.257 52.642,0.533 51.871,0.199 C51.1,-0.136 50.197,-0.04 49.515,0.448 L45.008,3.667 C44.377,4.119 44,4.851 44,5.626 L44,10.283 C44,10.396 43.952,10.506 43.868,10.583 L35,18.712 L35,7.902 C35,7.505 34.766,7.146 34.403,6.987 C34.039,6.826 33.617,6.896 33.325,7.164 L28.992,11.129 L28.914,11.208 C27.022,13.371 26.472,15.044 26.022,17.716 L23.717,28.425 C23.674,28.626 23.711,28.818 23.781,28.996 L20.324,32.165 C19.917,32.538 19.89,33.17 20.263,33.578 C20.46,33.793 20.729,33.902 21,33.902 C21.242,33.902 21.484,33.815 21.676,33.639 L45.219,12.058 C45.715,11.603 46,10.956 46,10.283 L46,5.626 C46,5.495 46.064,5.371 46.17,5.295 L50.677,2.076 C50.792,1.994 50.946,1.978 51.076,2.034 C51.206,2.09 51.299,2.213 51.318,2.354 L52.917,14.344 C52.934,14.469 52.89,14.598 52.801,14.687 L41.488,26 L37,26 C36.448,26 36,26.448 36,27 C36,27.552 36.448,28 37,28 L55.417,28 C55.534,28 55.817,28.028 55.93,28.287 C56.018,28.49 55.98,28.701 55.818,28.875 L54.377,30.458 C52.281,32.709 49.345,34 46.323,34 L35.908,34 C35.055,34 34.309,34.209 33.642,34.656 L31.624,36.177 C31.183,36.509 31.095,37.136 31.427,37.578 C31.624,37.838 31.924,37.976 32.227,37.976 C32.436,37.976 32.648,37.91 32.828,37.774 L34.799,36.287 C35.084,36.096 35.457,36 35.908,36 L46.323,36 C49.898,36 53.367,34.477 55.849,31.813 L57.29,30.229 C57.99,29.478 58.172,28.427 57.764,27.489 L57.764,27.489 Z M27.986,18.092 C28.412,15.565 28.841,14.341 30.383,12.566 L33,10.172 L33,20.545 L26.096,26.873 L27.986,18.092 L27.986,18.092 Z" id="Fill-124"/></g></g></svg>