<?xml version="1.0" ?><svg id="air-plane-landing-airport" style="enable-background:new 0 0 16 14.19;" version="1.1" viewBox="0 0 16 14.19" xml:space="preserve" xmlns="http://www.w3.org/2000/svg" xmlns:xlink="http://www.w3.org/1999/xlink"><path d="M2.824,7.208L14.559,11.4V9.722c0-1.44-0.864-2.715-2.2-3.25l-7.8-3.12V1.381L1.796,0L0.751,2.613  c-0.356,0.891-0.335,1.864,0.06,2.739C1.205,6.227,1.92,6.886,2.824,7.208z M1.68,2.984l0.641-1.604L3.559,2v2.029L11.987,7.4  c0.955,0.382,1.571,1.293,1.571,2.321v0.259L3.16,6.267c-0.645-0.23-1.156-0.702-1.438-1.326C1.44,4.316,1.425,3.621,1.68,2.984z"/><rect height="1" width="4" y="13.19"/><rect height="1" width="11" x="5" y="13.19"/></svg>