<?xml version="1.0" ?><!DOCTYPE svg  PUBLIC '-//W3C//DTD SVG 20010904//EN'  'http://www.w3.org/TR/2001/REC-SVG-20010904/DTD/svg10.dtd'><svg height="256.000000pt" preserveAspectRatio="xMidYMid meet" version="1.0" viewBox="0 0 256.000000 256.000000" width="256.000000pt" xmlns="http://www.w3.org/2000/svg"><g fill="#000000" stroke="none" transform="translate(0.000000,256.000000) scale(0.100000,-0.100000)"><path d="M683 2389 c-280 -8 -420 -21 -452 -41 -11 -6 -25 -23 -31 -37 -24 -51 -32 -359 -33 -1251 -2 -848 -1 -907 16 -937 26 -49 59 -52 110 -10 85 70 2126 2109 2156 2154 39 58 40 87 4 110 -25 17 -77 18 -768 19 -407 1 -858 -2 -1002 -7z m447 -130 c0 -41 16 -69 41 -69 21 0 39 34 39 76 0 24 1 25 73 22 69 -3 72 -4 75 -28 7 -63 12 -71 40 -68 24 3 28 8 32 48 l5 45 71 3 70 3 10 -48 c7 -40 13 -49 33 -51 29 -5 41 12 41 61 l0 37 75 0 75 0 0 -27 c0 -56 11 -74 39 -71 22 3 27 10 35 51 l9 47 68 0 68 0 6 -37 c10 -59 13 -63 39 -63 26 0 32 10 38 70 3 24 6 25 58 22 74 -3 97 -9 103 -26 4 -9 -203 -223 -566 -589 -914 -918 -1384 -1379 -1404 -1375 -12 2 -20 17 -25 43 -18 104 0 1786 20 1859 11 39 46 63 104 70 l46 5 9 -37 c7 -28 14 -38 32 -40 27 -4 41 12 41 49 0 24 5 27 46 33 86 11 104 9 104 -16 0 -51 11 -69 39 -66 22 3 27 10 35 46 l9 42 68 0 c74 0 71 2 81 -65 4 -24 47 -33 59 -13 5 7 9 27 9 45 0 38 7 41 88 42 l62 1 0 -31z"/><path d="M636 2041 c-68 -5 -91 -11 -101 -24 -20 -27 -27 -249 -23 -705 3 -345 5 -404 18 -412 8 -5 18 -10 22 -10 14 0 1090 1075 1105 1104 29 56 29 56 -476 54 -251 0 -496 -4 -545 -7z m788 -112 c3 -3 -173 -184 -391 -402 -227 -226 -402 -392 -407 -387 -4 4 -7 177 -4 383 2 291 6 378 17 390 8 11 34 17 79 20 106 6 700 3 706 -4z"/></g></svg>