<?xml version="1.0" ?><svg height="24px" version="1.1" viewBox="0 0 24 24" width="24px" xmlns="http://www.w3.org/2000/svg" xmlns:sketch="http://www.bohemiancoding.com/sketch/ns" xmlns:xlink="http://www.w3.org/1999/xlink"><title/><desc/><defs/><g fill="none" fill-rule="evenodd" id="miu" stroke="none" stroke-width="1"><g id="Artboard-1" transform="translate(-395.000000, -299.000000)"><g id="slice" transform="translate(215.000000, 119.000000)"/><path d="M396.140488,305 C396.062898,305 396,305.057936 396,305.128791 L396,320.871209 C396,320.942338 396.06311,321 396.140488,321 L417.859512,321 C417.937102,321 418,320.942064 418,320.871209 L418,305.128791 C418,305.057662 417.93689,305 417.859512,305 L396.140488,305 Z M404.311468,308.965573 L407.568023,314.589603 C407.608096,314.658809 407.694647,314.676887 407.758887,314.631708 L410.521394,312.688868 C410.650699,312.59793 410.822887,312.629655 410.909233,312.764808 L415.929855,318.623341 C416.014748,318.75622 415.953368,318.863939 415.803474,318.863939 L398.147227,318.863939 C397.992123,318.863939 397.924733,318.751431 397.997976,318.6102 L404.035029,308.969159 C404.107704,308.829023 404.232913,308.829911 404.311468,308.965573 Z M413.5,310 C414.328427,310 415,309.328427 415,308.5 C415,307.671573 414.328427,307 413.5,307 C412.671573,307 412,307.671573 412,308.5 C412,309.328427 412.671573,310 413.5,310 Z M398,301 L398,302 L416,302 L416,301 L398,301 Z M397,303 L397,304 L417,304 L417,303 L397,303 Z" fill="#000000" id="editor-images-pictures-photos-collection-glyph"/></g></g></svg>