<?xml version="1.0" ?><svg version="1.1" viewBox="2.54312999459216E-06 -0.0640105977654457 149.949002583823 114.73101041466" xmlns="http://www.w3.org/2000/svg" xmlns:xlink="http://www.w3.org/1999/xlink"><defs><linearGradient id="def0" x1="0.500003" x2="0.500003" y1="1" y2="4.86082E-06"><stop offset="0" stop-color="#B8DAFF"/><stop offset="0.00561806" stop-color="#B8DAFF"/><stop offset="1" stop-color="#F6F9FF"/></linearGradient></defs><g><path d="M149.949,57.3013C149.949,88.9827 116.381,114.667 74.9747,114.667 33.5667,114.667 2.54313E-06,88.9827 2.54313E-06,57.3013 2.54313E-06,25.6187 33.5667,-0.0640106 74.9747,-0.0640106 116.381,-0.0640106 149.949,25.6187 149.949,57.3013z" fill="#77A1C9"/><path d="M74.9747,113.333C34.368,113.333 1.33334,88.1972 1.33334,57.3012 1.33334,26.4052 34.368,1.2692 74.9747,1.2692 115.581,1.2692 148.616,26.4052 148.616,57.3012 148.616,88.1972 115.581,113.333 74.9747,113.333z" fill="#FFFFFF"/><path d="M3.9996,57.3009C3.9996,86.7263,35.8396,110.666,74.9756,110.666L74.9756,110.666C114.11,110.666,145.949,86.7263,145.949,57.3009L145.949,57.3009C145.949,27.8756,114.11,3.93559,74.9756,3.93559L74.9756,3.93559C35.8396,3.93559,3.9996,27.8756,3.9996,57.3009z" fill="url(#def0)"/></g></svg>