<?xml version="1.0" ?><svg enable-background="new 0 0 192 192" id="windows" version="1.1" viewBox="0 0 192 192" xml:space="preserve" xmlns="http://www.w3.org/2000/svg" xmlns:xlink="http://www.w3.org/1999/xlink"><g><path d="M88,0H4C1.7891,0,0,1.7891,0,4v84c0,2.2109,1.7891,4,4,4h84c2.2109,0,4-1.7891,4-4V4   C92,1.7891,90.2109,0,88,0z" fill="#314E55"/><rect fill="#E65F58" height="76" width="76" x="8" y="8"/><path d="M88,100H4c-2.2109,0-4,1.7891-4,4v84c0,2.2109,1.7891,4,4,4h84c2.2109,0,4-1.7891,4-4v-84   C92,101.7891,90.2109,100,88,100z" fill="#314E55"/><rect fill="#81A4E3" height="76" width="76" x="8" y="108"/><path d="M188,100h-84c-2.2109,0-4,1.7891-4,4v84c0,2.2109,1.7891,4,4,4h84c2.2109,0,4-1.7891,4-4v-84   C192,101.7891,190.2109,100,188,100z" fill="#314E55"/><rect fill="#E4AD40" height="76" width="76" x="108" y="108"/><path d="M188,0h-84c-2.2109,0-4,1.7891-4,4v84c0,2.2109,1.7891,4,4,4h84c2.2109,0,4-1.7891,4-4V4   C192,1.7891,190.2109,0,188,0z" fill="#314E55"/><rect fill="#5ECB66" height="76" width="76" x="108" y="8"/></g></svg>