<?xml version="1.0" ?><svg style="enable-background:new 0 0 1000 1000;" version="1.1" viewBox="0 0 1000 1000" xml:space="preserve" xmlns="http://www.w3.org/2000/svg" xmlns:xlink="http://www.w3.org/1999/xlink"><style type="text/css">
	.st0{fill:none;stroke:#000000;stroke-width:40.1815;stroke-miterlimit:10;}
	.st1{fill:none;stroke:#000000;stroke-width:56.3951;stroke-miterlimit:10;}
	.st2{fill:none;}
</style><g id="Layer_1"/><g id="Layer_2"/><g id="Layer_3"/><g id="Layer_4"/><g id="Layer_5"><g><polygon points="848.2,348.2 815.9,380.4 935.5,500 815.9,619.6 848.2,651.8 1000,500   "/><polygon points="500,64.5 620.9,185.4 653.2,153.2 500,0 348.2,151.8 380.4,184.1   "/><polygon points="500,935.5 380.4,815.9 348.2,848.2 500,1000 653.2,846.8 620.9,814.6   "/><polygon points="64.5,500 185.4,379.1 153.2,346.8 0,500 153.2,653.2 185.4,620.9   "/><circle cx="723.6" cy="723.6" r="100"/><circle cx="273.6" cy="273.6" r="100"/><circle cx="273.6" cy="723.6" r="100"/><circle cx="723.6" cy="273.6" r="100"/><circle cx="500" cy="500" r="100"/></g></g><g id="Layer_6"/><g id="Layer_7"/><g id="Layer_8"/><g id="Layer_9"/><g id="Layer_10"/><g id="Layer_11"/><g id="Layer_12"/><g id="Layer_13"/><g id="Layer_14"/><g id="Layer_15"/><g id="Layer_16"/><g id="Layer_17"/><g id="Layer_18"/><g id="Layer_19"/><g id="Layer_20"/><g id="Layer_21"/><g id="Layer_22"/><g id="Layer_23"/><g id="Layer_24"/><g id="Layer_25"/><g id="Layer_26"/><g id="Layer_27"/><g id="Layer_28"/><g id="Layer_29"/></svg>