<?xml version="1.0" ?><svg height="24px" version="1.1" viewBox="0 0 24 24" width="24px" xmlns="http://www.w3.org/2000/svg" xmlns:sketch="http://www.bohemiancoding.com/sketch/ns" xmlns:xlink="http://www.w3.org/1999/xlink"><title/><desc/><defs/><g fill="none" fill-rule="evenodd" id="miu" stroke="none" stroke-width="1"><g id="Artboard-1" transform="translate(-899.000000, -119.000000)"><g id="slice" transform="translate(215.000000, 119.000000)"/><path d="M905.145292,123.438185 C906.828556,121.922485 909.056549,121 911.5,121 C916.746705,121 921,125.253295 921,130.5 C921,132.943451 920.077515,135.171444 918.561815,136.854708 L905.145292,123.438185 Z M904.438185,124.145292 C902.922485,125.828556 902,128.056549 902,130.5 C902,135.746705 906.253295,140 911.5,140 C913.943451,140 916.171444,139.077515 917.854708,137.561815 L904.438185,124.145292 Z M900,130.5 C900,124.148725 905.148725,119 911.5,119 C917.851275,119 923,124.148725 923,130.5 C923,136.851275 917.851275,142 911.5,142 C905.148725,142 900,136.851275 900,130.5 Z" fill="#000000" id="circle-no-forbidden-outline-glyph"/></g></g></svg>